name ./resultDataOpenSim/trcMotMarkerGrf/sub06/grf-14-03.mot
datacolumns 19
datarows 27
range 0.54000000 0.64400000
endheader

                time	     ground_force_vx	     ground_force_vy	     ground_force_vz	     ground_force_px	     ground_force_py	     ground_force_pz	   l_ground_force_vx	   l_ground_force_vy	   l_ground_force_vz	   l_ground_force_px	   l_ground_force_py	   l_ground_force_pz	     ground_torque_x	     ground_torque_y	     ground_torque_z	   l_ground_torque_x	   l_ground_torque_y	   l_ground_torque_z	
          0.54000000	        188.95244269	        778.86219928	        -31.34056880	         -0.79235687	          0.00000000	          0.06735629	          0.00000000	          0.00000000	          0.00000000	          0.00000000	          0.00000000	          0.00000000	          0.00000000	          0.95674351	          0.00000000	          0.00000000	          0.00000000	          0.00000000	
          0.54400000	        196.16333844	        779.05286417	        -30.34582937	         -0.79173112	          0.00000000	          0.06675856	          0.00000000	          0.00000000	          0.00000000	          0.00000000	          0.00000000	          0.00000000	          0.00000000	          0.90917780	          0.00000000	          0.00000000	          0.00000000	          0.00000000	
          0.54800000	        203.62185233	        777.85594328	        -29.07761366	         -0.79113622	          0.00000000	          0.06615629	          0.00000000	          0.00000000	          0.00000000	          0.00000000	          0.00000000	          0.00000000	          0.00000000	          0.85233453	          0.00000000	          0.00000000	          0.00000000	          0.00000000	
          0.55200000	        211.37436809	        775.31982827	        -27.46643879	         -0.79062513	          0.00000000	          0.06553764	          0.00000000	          0.00000000	          0.00000000	          0.00000000	          0.00000000	          0.00000000	          0.00000000	          0.78972898	          0.00000000	          0.00000000	          0.00000000	          0.00000000	
          0.55600000	        219.41071646	        771.40018791	        -25.48230458	         -0.79021515	          0.00000000	          0.06489982	          0.00000000	          0.00000000	          0.00000000	          0.00000000	          0.00000000	          0.00000000	          0.00000000	          0.72380454	          0.00000000	          0.00000000	          0.00000000	          0.00000000	
          0.56000000	        227.63354967	        765.95729244	        -23.12724285	         -0.78988738	          0.00000000	          0.06425165	          0.00000000	          0.00000000	          0.00000000	          0.00000000	          0.00000000	          0.00000000	          0.00000000	          0.65522140	          0.00000000	          0.00000000	          0.00000000	          0.00000000	
          0.56400000	        235.86730702	        758.84107742	        -20.41696407	         -0.78962678	          0.00000000	          0.06359961	          0.00000000	          0.00000000	          0.00000000	          0.00000000	          0.00000000	          0.00000000	          0.00000000	          0.58259833	          0.00000000	          0.00000000	          0.00000000	          0.00000000	
          0.56800000	        243.88801749	        749.92172297	        -17.38216869	         -0.78944823	          0.00000000	          0.06293874	          0.00000000	          0.00000000	          0.00000000	          0.00000000	          0.00000000	          0.00000000	          0.00000000	          0.50270217	          0.00000000	          0.00000000	          0.00000000	          0.00000000	
          0.57200000	        251.44649021	        738.98017998	        -14.08866781	         -0.78937270	          0.00000000	          0.06226339	          0.00000000	          0.00000000	          0.00000000	          0.00000000	          0.00000000	          0.00000000	          0.00000000	          0.41106065	          0.00000000	          0.00000000	          0.00000000	          0.00000000	
          0.57600000	        258.27664390	        725.56935413	        -10.65309343	         -0.78938506	          0.00000000	          0.06158606	          0.00000000	          0.00000000	          0.00000000	          0.00000000	          0.00000000	          0.00000000	          0.00000000	          0.30309090	          0.00000000	          0.00000000	          0.00000000	          0.00000000	
          0.58000000	        264.07674270	        709.06462051	         -7.22667627	         -0.78942112	          0.00000000	          0.06093989	          0.00000000	          0.00000000	          0.00000000	          0.00000000	          0.00000000	          0.00000000	          0.00000000	          0.17575506	          0.00000000	          0.00000000	          0.00000000	          0.00000000	
          0.58400000	        268.47592771	        688.94448640	         -3.93793809	         -0.78941043	          0.00000000	          0.06034925	          0.00000000	          0.00000000	          0.00000000	          0.00000000	          0.00000000	          0.00000000	          0.00000000	          0.02933995	          0.00000000	          0.00000000	          0.00000000	          0.00000000	
          0.58800000	        271.05143573	        664.99189421	         -0.84289322	         -0.78935926	          0.00000000	          0.05979938	          0.00000000	          0.00000000	          0.00000000	          0.00000000	          0.00000000	          0.00000000	          0.00000000	         -0.13138636	          0.00000000	          0.00000000	          0.00000000	          0.00000000	
          0.59200000	        271.38904651	        637.11472887	          2.05108292	         -0.78937483	          0.00000000	          0.05925629	          0.00000000	          0.00000000	          0.00000000	          0.00000000	          0.00000000	          0.00000000	          0.00000000	         -0.29710621	          0.00000000	          0.00000000	          0.00000000	          0.00000000	
          0.59600000	        269.07098481	        605.00981577	          4.71815142	         -0.78954200	          0.00000000	          0.05872756	          0.00000000	          0.00000000	          0.00000000	          0.00000000	          0.00000000	          0.00000000	          0.00000000	         -0.45470447	          0.00000000	          0.00000000	          0.00000000	          0.00000000	
          0.60000000	        263.58642887	        568.19340988	          7.10007993	         -0.78973789	          0.00000000	          0.05827598	          0.00000000	          0.00000000	          0.00000000	          0.00000000	          0.00000000	          0.00000000	          0.00000000	         -0.58830564	          0.00000000	          0.00000000	          0.00000000	          0.00000000	
          0.60400000	        254.35328041	        526.49283207	          9.15613788	         -0.78963620	          0.00000000	          0.05797801	          0.00000000	          0.00000000	          0.00000000	          0.00000000	          0.00000000	          0.00000000	          0.00000000	         -0.68063110	          0.00000000	          0.00000000	          0.00000000	          0.00000000	
          0.60800000	        240.94133617	        480.52547905	         10.89147912	         -0.78903799	          0.00000000	          0.05784222	          0.00000000	          0.00000000	          0.00000000	          0.00000000	          0.00000000	          0.00000000	          0.00000000	         -0.71525338	          0.00000000	          0.00000000	          0.00000000	          0.00000000	
          0.61200000	        223.29572397	        431.70430338	         12.31658497	         -0.78797645	          0.00000000	          0.05781874	          0.00000000	          0.00000000	          0.00000000	          0.00000000	          0.00000000	          0.00000000	          0.00000000	         -0.67993382	          0.00000000	          0.00000000	          0.00000000	          0.00000000	
          0.61600000	        201.76853645	        381.80415857	         13.39035762	         -0.78651824	          0.00000000	          0.05784550	          0.00000000	          0.00000000	          0.00000000	          0.00000000	          0.00000000	          0.00000000	          0.00000000	         -0.57026223	          0.00000000	          0.00000000	          0.00000000	          0.00000000	
          0.62000000	        177.05714581	        332.51334794	         14.02293481	         -0.78446214	          0.00000000	          0.05791043	          0.00000000	          0.00000000	          0.00000000	          0.00000000	          0.00000000	          0.00000000	          0.00000000	         -0.39234030	          0.00000000	          0.00000000	          0.00000000	          0.00000000	
          0.62400000	        150.22223821	        285.29969801	         14.14364671	         -0.78134583	          0.00000000	          0.05804167	          0.00000000	          0.00000000	          0.00000000	          0.00000000	          0.00000000	          0.00000000	          0.00000000	         -0.16362747	          0.00000000	          0.00000000	          0.00000000	          0.00000000	
          0.62800000	        122.72275211	        241.45920484	         13.75646948	         -0.77692949	          0.00000000	          0.05821080	          0.00000000	          0.00000000	          0.00000000	          0.00000000	          0.00000000	          0.00000000	          0.00000000	          0.08831588	          0.00000000	          0.00000000	          0.00000000	          0.00000000	
          0.63200000	         96.26454281	        201.98446560	         12.91426631	         -0.77160075	          0.00000000	          0.05828530	          0.00000000	          0.00000000	          0.00000000	          0.00000000	          0.00000000	          0.00000000	          0.00000000	          0.32919162	          0.00000000	          0.00000000	          0.00000000	          0.00000000	
          0.63600000	         72.44394542	        167.24534087	         11.64883481	         -0.76616890	          0.00000000	          0.05815664	          0.00000000	          0.00000000	          0.00000000	          0.00000000	          0.00000000	          0.00000000	          0.00000000	          0.52328386	          0.00000000	          0.00000000	          0.00000000	          0.00000000	
          0.64000000	         52.40680797	        136.89418838	          9.95083619	         -0.76111077	          0.00000000	          0.05795313	          0.00000000	          0.00000000	          0.00000000	          0.00000000	          0.00000000	          0.00000000	          0.00000000	          0.63995725	          0.00000000	          0.00000000	          0.00000000	          0.00000000	
          0.64400000	         36.72347535	        110.24895373	          7.82231039	         -0.75613117	          0.00000000	          0.05808320	          0.00000000	          0.00000000	          0.00000000	          0.00000000	          0.00000000	          0.00000000	          0.00000000	          0.65962687	          0.00000000	          0.00000000	          0.00000000	          0.00000000	
